<?xml version="1.0" encoding="UTF-8" standalone="no"?>
<!-- Created with Inkscape (http://www.inkscape.org/) -->

<svg
   xmlns:dc="http://purl.org/dc/elements/1.1/"
   xmlns:cc="http://creativecommons.org/ns#"
   xmlns:rdf="http://www.w3.org/1999/02/22-rdf-syntax-ns#"
   xmlns:svg="http://www.w3.org/2000/svg"
   xmlns="http://www.w3.org/2000/svg"
   xmlns:sodipodi="http://sodipodi.sourceforge.net/DTD/sodipodi-0.dtd"
   xmlns:inkscape="http://www.inkscape.org/namespaces/inkscape"
   width="200"
   height="200"
   viewBox="0 0 200 200"
   id="svg2"
   version="1.1"
   inkscape:version="0.91 r13725"
   sodipodi:docname="setup.svg">
  <sodipodi:namedview
     id="base"
     pagecolor="#ffffff"
     bordercolor="#666666"
     borderopacity="1.0"
     inkscape:pageopacity="0.0"
     inkscape:pageshadow="2"
     inkscape:zoom="2.8"
     inkscape:cx="105.53986"
     inkscape:cy="89.893243"
     inkscape:document-units="px"
     inkscape:current-layer="layer1"
     showgrid="false"
     inkscape:window-width="1861"
     inkscape:window-height="1056"
     inkscape:window-x="59"
     inkscape:window-y="24"
     inkscape:window-maximized="1"
     units="px" />
  <defs
     id="defs4" />
  <metadata
     id="metadata7">
    <rdf:RDF>
      <cc:Work
         rdf:about="">
        <dc:format>image/svg+xml</dc:format>
        <dc:type
           rdf:resource="http://purl.org/dc/dcmitype/StillImage" />
        <dc:title />
      </cc:Work>
    </rdf:RDF>
  </metadata>
  <g
     id="layer1"
     inkscape:groupmode="layer"
     inkscape:label="Layer 1"
     transform="translate(0,-852.36216)">
    <circle
       cy="952.36218"
       cx="100"
       id="path4222"
       style="fill:#ffffff;fill-opacity:1;fill-rule:evenodd;stroke:#408040;stroke-width:30;stroke-linecap:butt;stroke-linejoin:miter;stroke-miterlimit:4;stroke-dasharray:none;stroke-opacity:1"
       r="85" />
    <g
       style="fill:#408040;fill-opacity:1;stroke:#408040;stroke-width:2.76035833;stroke-miterlimit:4;stroke-dasharray:none;stroke-opacity:1"
       transform="matrix(1.8123999,0,0,1.810316,99.500003,952.91558)"
       inkscape:label="Gear8"
       id="g4210">
      <path
         inkscape:connector-curvature="0"
         d="m 18.7249,-3.75955 5.86234,-1.17703 0.38825,-0.03135 6.7539,2.42671 0,5.08244 -6.7539,2.42671 -0.38825,-0.03135 -5.86234,-1.17703 -2.82599,6.82255 4.97758,3.31302 0.29671,0.25236 3.05978,6.49167 -3.59383,3.59383 -6.49167,-3.05978 -0.25236,-0.29671 -3.31302,-4.97758 -6.82255,2.82599 1.17703,5.86234 0.03135,0.38825 -2.42671,6.7539 -5.08244,0 -2.42671,-6.7539 0.03135,-0.38825 1.17703,-5.86234 -6.82255,-2.82599 -3.31302,4.97758 -0.25236,0.29671 -6.49167,3.05978 -3.59383,-3.59383 3.05978,-6.49167 0.29671,-0.25236 4.97758,-3.31302 -2.82599,-6.82255 -5.86234,1.17703 -0.38825,0.03135 -6.7539,-2.42671 0,-5.08244 6.7539,-2.42671 0.38825,0.03135 5.86234,1.17703 2.82599,-6.82255 -4.97758,-3.31302 -0.29671,-0.25236 -3.05978,-6.49167 3.59383,-3.59383 6.49167,3.05978 0.25236,0.29671 3.31302,4.97758 6.82255,-2.82599 -1.17703,-5.86234 -0.03135,-0.38825 2.42671,-6.7539 5.08244,0 2.42671,6.7539 -0.03135,0.38825 -1.17703,5.86234 6.82255,2.82599 3.31302,-4.97758 0.25236,-0.29671 6.49167,-3.05978 3.59383,3.59383 -3.05978,6.49167 -0.29671,0.25236 -4.97758,3.31302 z"
         style="fill:#408040;fill-opacity:1;stroke:#408040;stroke-width:2.76035833;stroke-miterlimit:4;stroke-dasharray:none;stroke-opacity:1"
         id="path4212" />
      <circle
         r="10"
         cy="0"
         cx="0"
         style="fill:#408040;fill-opacity:1;stroke:#408040;stroke-width:2.76035833;stroke-miterlimit:4;stroke-dasharray:none;stroke-opacity:1"
         id="path4214" />
    </g>
    <circle
       r="14.999995"
       cy="952.36218"
       cx="100"
       id="path4224"
       style="fill:#ffffff;fill-opacity:1;fill-rule:evenodd;stroke:#000000;stroke-width:0;stroke-linecap:butt;stroke-linejoin:miter;stroke-miterlimit:4;stroke-dasharray:none;stroke-opacity:1" />
  </g>
</svg>
